# xmcd
#
# Track frame offsets:
#	150
#	12375
#	26775
#	44100
#	56475
#	70125
#	82725
#	95925
#	109275
#	119475
#	132375
#	143475
#	157875
#	170475
#	182100
#	195975
#	206925
#	223800
#	237225
#	251700
#	265950
#	279075
#	292875
#
# Disc length: 4084 seconds
#
# Revision: 1
# Processed by: cddbd v1.5.2PL0 Copyright (c) Steve Scherf et al.
# Submitted via: audiograbber 1.83.01
#
DISCID=5d0ff217
DTITLE=The Tumbleweeds - The Golden Hits of the Tumbleweeds 1949-1989
DYEAR=1900
DGENRE=Country
TTITLE0=Maple on the Hill
TTITLE1=Feelin' Bad
TTITLE2=Lost One
TTITLE3=Please Don't Let Me Love You
TTITLE4=Sweethearts or Strangers
TTITLE5=Bury Me Under the Weeping Willow
TTITLE6=My Swiss Moonlight Lullaby
TTITLE7=Please Don't Take Him Away
TTITLE8=Blackboard of My Heart
TTITLE9=The Soldier's Last Hour
TTITLE10=Waterloo
TTITLE11=Highway Hobo
TTITLE12=She Lies Alone
TTITLE13=Jenny Lou
TTITLE14=The Land of Bamboo
TTITLE15=Calling You
TTITLE16=Twenty One Years
TTITLE17=The Outlaw
TTITLE18=Brave Man
TTITLE19=Yodel Boogie
TTITLE20=Last Night as I Slept
TTITLE21=My Old Montana Home
TTITLE22=The Wonderful City
EXTD=Colin  Wilson and the Tumbleweeds were a county music band from New Zealan
EXTD=d.
EXTT0=
EXTT1=
EXTT2=
EXTT3=
EXTT4=
EXTT5=
EXTT6=
EXTT7=
EXTT8=
EXTT9=
EXTT10=
EXTT11=
EXTT12=
EXTT13=
EXTT14=
EXTT15=
EXTT16=
EXTT17=
EXTT18=
EXTT19=
EXTT20=
EXTT21=
EXTT22=
PLAYORDER=
